# xmcd
#
# Track frame offsets:
# 150
# 27000
# 59424
# 87767
# 112266
# 139953
# 175998
# 201651
# 227435
# 246664
#
# Disc length: 3739 seconds
#
# Revision: 1
# Processed by: cddbd v1.4PL0 Copyright (c) Steve Scherf et al.
# Submitted via: Easy CD Ripper v2.14
#
DISCID=930e990a
DTITLE=Enchant - Blink of An Eye
DYEAR=2002
DGENRE=Progressive Rock
TTITLE0=Under Fire - Enchant
TTITLE1=Monday - Enchant
TTITLE2=Seeds of Hate - Enchant
TTITLE3=Flat Line - Enchant
TTITLE4=Follow the Sun - Enchant
TTITLE5=Ultimate Gift - Enchant
TTITLE6=My Everafter - Enchant
TTITLE7=Invisible - Enchant
TTITLE8=Despicable - Enchant
TTITLE9=Prognosis - Enchant
EXTD=Increible
EXTT0=
EXTT1=
EXTT2=
EXTT3=
EXTT4=
EXTT5=
EXTT6=
EXTT7=
EXTT8=
EXTT9=
PLAYORDER=
